<svg xmlns="http://www.w3.org/2000/svg" viewBox="0 0 1080 400" width="1080" height="400" font-family="system-ui, -apple-system, Segoe UI, Roboto, sans-serif" role="img">
<style>.t{fill:#0A0A0A;font-size:16px}.n{fill:#0A0A0A;font-size:15px;font-weight:600}.m{fill:#5A5347;font-size:13px}.k{fill:#5A5347;font-size:12px;letter-spacing:.14em;text-transform:uppercase}</style>
<text x="540.0" y="34" text-anchor="middle" class="k">the same 748,000,000 leaves</text>
<path d="M180.0 74 L305.0 274 L55.0 274 Z" fill="#ECE8DA" stroke="#0A0A0A" stroke-width="1.6" stroke-linejoin="round"/>
<line x1="175.8" y1="80.7" x2="184.2" y2="80.7" stroke="#0A0A0A" stroke-width="0.8" stroke-opacity="0.45"/>
<line x1="171.7" y1="87.3" x2="188.3" y2="87.3" stroke="#0A0A0A" stroke-width="0.8" stroke-opacity="0.45"/>
<line x1="167.5" y1="94.0" x2="192.5" y2="94.0" stroke="#0A0A0A" stroke-width="0.8" stroke-opacity="0.45"/>
<line x1="163.3" y1="100.7" x2="196.7" y2="100.7" stroke="#0A0A0A" stroke-width="0.8" stroke-opacity="0.45"/>
<line x1="159.2" y1="107.3" x2="200.8" y2="107.3" stroke="#0A0A0A" stroke-width="0.8" stroke-opacity="0.45"/>
<line x1="155.0" y1="114.0" x2="205.0" y2="114.0" stroke="#0A0A0A" stroke-width="0.8" stroke-opacity="0.45"/>
<line x1="150.8" y1="120.7" x2="209.2" y2="120.7" stroke="#0A0A0A" stroke-width="0.8" stroke-opacity="0.45"/>
<line x1="146.7" y1="127.3" x2="213.3" y2="127.3" stroke="#0A0A0A" stroke-width="0.8" stroke-opacity="0.45"/>
<line x1="142.5" y1="134.0" x2="217.5" y2="134.0" stroke="#0A0A0A" stroke-width="0.8" stroke-opacity="0.45"/>
<line x1="138.3" y1="140.7" x2="221.7" y2="140.7" stroke="#0A0A0A" stroke-width="0.8" stroke-opacity="0.45"/>
<line x1="134.2" y1="147.3" x2="225.8" y2="147.3" stroke="#0A0A0A" stroke-width="0.8" stroke-opacity="0.45"/>
<line x1="130.0" y1="154.0" x2="230.0" y2="154.0" stroke="#0A0A0A" stroke-width="0.8" stroke-opacity="0.45"/>
<line x1="125.8" y1="160.7" x2="234.2" y2="160.7" stroke="#0A0A0A" stroke-width="0.8" stroke-opacity="0.45"/>
<line x1="121.7" y1="167.3" x2="238.3" y2="167.3" stroke="#0A0A0A" stroke-width="0.8" stroke-opacity="0.45"/>
<line x1="117.5" y1="174.0" x2="242.5" y2="174.0" stroke="#0A0A0A" stroke-width="0.8" stroke-opacity="0.45"/>
<line x1="113.3" y1="180.7" x2="246.7" y2="180.7" stroke="#0A0A0A" stroke-width="0.8" stroke-opacity="0.45"/>
<line x1="109.2" y1="187.3" x2="250.8" y2="187.3" stroke="#0A0A0A" stroke-width="0.8" stroke-opacity="0.45"/>
<line x1="105.0" y1="194.0" x2="255.0" y2="194.0" stroke="#0A0A0A" stroke-width="0.8" stroke-opacity="0.45"/>
<line x1="100.8" y1="200.7" x2="259.2" y2="200.7" stroke="#0A0A0A" stroke-width="0.8" stroke-opacity="0.45"/>
<line x1="96.7" y1="207.3" x2="263.3" y2="207.3" stroke="#0A0A0A" stroke-width="0.8" stroke-opacity="0.45"/>
<line x1="92.5" y1="214.0" x2="267.5" y2="214.0" stroke="#0A0A0A" stroke-width="0.8" stroke-opacity="0.45"/>
<line x1="88.3" y1="220.7" x2="271.7" y2="220.7" stroke="#0A0A0A" stroke-width="0.8" stroke-opacity="0.45"/>
<line x1="84.2" y1="227.3" x2="275.8" y2="227.3" stroke="#0A0A0A" stroke-width="0.8" stroke-opacity="0.45"/>
<line x1="80.0" y1="234.0" x2="280.0" y2="234.0" stroke="#0A0A0A" stroke-width="0.8" stroke-opacity="0.45"/>
<line x1="75.8" y1="240.7" x2="284.2" y2="240.7" stroke="#0A0A0A" stroke-width="0.8" stroke-opacity="0.45"/>
<line x1="71.7" y1="247.3" x2="288.3" y2="247.3" stroke="#0A0A0A" stroke-width="0.8" stroke-opacity="0.45"/>
<line x1="67.5" y1="254.0" x2="292.5" y2="254.0" stroke="#0A0A0A" stroke-width="0.8" stroke-opacity="0.45"/>
<line x1="63.3" y1="260.7" x2="296.7" y2="260.7" stroke="#0A0A0A" stroke-width="0.8" stroke-opacity="0.45"/>
<line x1="59.2" y1="267.3" x2="300.8" y2="267.3" stroke="#0A0A0A" stroke-width="0.8" stroke-opacity="0.45"/>
<circle cx="180.0" cy="74" r="4" fill="#133E87"/>
<path d="M35.0 74 L29.0 74 L29.0 274 L35.0 274" fill="none" stroke="#5A5347" stroke-width="1.1"/>
<text x="23.0" y="179" text-anchor="end" class="m" transform="rotate(-90 23.0 179)">30 levels</text>
<text x="180.0" y="308" text-anchor="middle" class="n">2 children per node</text>
<text x="180.0" y="332" text-anchor="middle" class="m">30 hashes per inclusion proof</text>
<path d="M540.0 74 L665.0 274 L415.0 274 Z" fill="#ECE8DA" stroke="#0A0A0A" stroke-width="1.6" stroke-linejoin="round"/>
<line x1="531.7" y1="87.3" x2="548.3" y2="87.3" stroke="#0A0A0A" stroke-width="0.8" stroke-opacity="0.45"/>
<line x1="523.3" y1="100.7" x2="556.7" y2="100.7" stroke="#0A0A0A" stroke-width="0.8" stroke-opacity="0.45"/>
<line x1="515.0" y1="114.0" x2="565.0" y2="114.0" stroke="#0A0A0A" stroke-width="0.8" stroke-opacity="0.45"/>
<line x1="506.7" y1="127.3" x2="573.3" y2="127.3" stroke="#0A0A0A" stroke-width="0.8" stroke-opacity="0.45"/>
<line x1="498.3" y1="140.7" x2="581.7" y2="140.7" stroke="#0A0A0A" stroke-width="0.8" stroke-opacity="0.45"/>
<line x1="490.0" y1="154.0" x2="590.0" y2="154.0" stroke="#0A0A0A" stroke-width="0.8" stroke-opacity="0.45"/>
<line x1="481.7" y1="167.3" x2="598.3" y2="167.3" stroke="#0A0A0A" stroke-width="0.8" stroke-opacity="0.45"/>
<line x1="473.3" y1="180.7" x2="606.7" y2="180.7" stroke="#0A0A0A" stroke-width="0.8" stroke-opacity="0.45"/>
<line x1="465.0" y1="194.0" x2="615.0" y2="194.0" stroke="#0A0A0A" stroke-width="0.8" stroke-opacity="0.45"/>
<line x1="456.7" y1="207.3" x2="623.3" y2="207.3" stroke="#0A0A0A" stroke-width="0.8" stroke-opacity="0.45"/>
<line x1="448.3" y1="220.7" x2="631.7" y2="220.7" stroke="#0A0A0A" stroke-width="0.8" stroke-opacity="0.45"/>
<line x1="440.0" y1="234.0" x2="640.0" y2="234.0" stroke="#0A0A0A" stroke-width="0.8" stroke-opacity="0.45"/>
<line x1="431.7" y1="247.3" x2="648.3" y2="247.3" stroke="#0A0A0A" stroke-width="0.8" stroke-opacity="0.45"/>
<line x1="423.3" y1="260.7" x2="656.7" y2="260.7" stroke="#0A0A0A" stroke-width="0.8" stroke-opacity="0.45"/>
<circle cx="540.0" cy="74" r="4" fill="#133E87"/>
<path d="M395.0 74 L389.0 74 L389.0 274 L395.0 274" fill="none" stroke="#5A5347" stroke-width="1.1"/>
<text x="383.0" y="179" text-anchor="end" class="m" transform="rotate(-90 383.0 179)">15 levels</text>
<text x="540.0" y="308" text-anchor="middle" class="n">4 children per node</text>
<text x="540.0" y="332" text-anchor="middle" class="m">15 hashes per inclusion proof</text>
<path d="M900.0 74 L1025.0 274 L775.0 274 Z" fill="#ECE8DA" stroke="#0A0A0A" stroke-width="1.6" stroke-linejoin="round"/>
<line x1="887.5" y1="94.0" x2="912.5" y2="94.0" stroke="#0A0A0A" stroke-width="0.8" stroke-opacity="0.45"/>
<line x1="875.0" y1="114.0" x2="925.0" y2="114.0" stroke="#0A0A0A" stroke-width="0.8" stroke-opacity="0.45"/>
<line x1="862.5" y1="134.0" x2="937.5" y2="134.0" stroke="#0A0A0A" stroke-width="0.8" stroke-opacity="0.45"/>
<line x1="850.0" y1="154.0" x2="950.0" y2="154.0" stroke="#0A0A0A" stroke-width="0.8" stroke-opacity="0.45"/>
<line x1="837.5" y1="174.0" x2="962.5" y2="174.0" stroke="#0A0A0A" stroke-width="0.8" stroke-opacity="0.45"/>
<line x1="825.0" y1="194.0" x2="975.0" y2="194.0" stroke="#0A0A0A" stroke-width="0.8" stroke-opacity="0.45"/>
<line x1="812.5" y1="214.0" x2="987.5" y2="214.0" stroke="#0A0A0A" stroke-width="0.8" stroke-opacity="0.45"/>
<line x1="800.0" y1="234.0" x2="1000.0" y2="234.0" stroke="#0A0A0A" stroke-width="0.8" stroke-opacity="0.45"/>
<line x1="787.5" y1="254.0" x2="1012.5" y2="254.0" stroke="#0A0A0A" stroke-width="0.8" stroke-opacity="0.45"/>
<circle cx="900.0" cy="74" r="4" fill="#133E87"/>
<path d="M755.0 74 L749.0 74 L749.0 274 L755.0 274" fill="none" stroke="#5A5347" stroke-width="1.1"/>
<text x="743.0" y="179" text-anchor="end" class="m" transform="rotate(-90 743.0 179)">10 levels</text>
<text x="900.0" y="308" text-anchor="middle" class="n">8 children per node</text>
<text x="900.0" y="332" text-anchor="middle" class="m">10 hashes per inclusion proof</text>
<line x1="60" y1="352" x2="1020" y2="352" stroke="#0A0A0A" stroke-opacity="0.12"/>
</svg>
